<svg width="512" height="512" viewBox="0 0 512 512" fill="none" xmlns="http://www.w3.org/2000/svg">
<path d="M410.77 79.0797C414.128 78.8652 419.763 79.0274 423.243 79.0287L447.47 79.0412L466.138 79.0094C469.068 78.9994 477.273 78.431 479.338 80.041C484.278 83.8945 479.158 88.4017 476.443 91.5972L469.075 100.324L443.768 130.167L379.205 207.334L354.508 236.978C349.238 243.25 343.87 249.516 338.71 255.885C335.393 259.977 337.31 260.975 340.698 264.435C374.763 299.107 408.255 334.337 441.158 370.115L468.863 399.99C473.343 404.832 478.128 409.887 482.43 414.895C483.128 415.707 483.223 416.86 483.365 417.917C483.19 419.217 482.995 420.187 482.06 421.182C480.94 422.372 478.995 422.877 477.405 422.885C473.665 422.9 469.89 422.745 466.15 422.76L422.1 422.79C419.578 422.79 403.94 422.977 403.03 422.532C399.985 421.047 384.405 403.715 381.82 400.965L335.68 351.98C328.435 344.382 319.333 334.525 311.908 327.467C317.075 321.622 320.76 316.437 323.98 309.202C331.033 293.177 331.37 274.995 324.915 258.72C319.613 245.501 310.15 234.369 297.96 227.006C294.69 225.042 291.895 223.825 288.433 222.306C291.425 218.975 295.215 214 298.08 210.451L315.36 189.134C336.313 163.185 357.443 137.38 378.748 111.72L396.138 91.2405C398.878 88.0427 401.935 84.3437 404.93 81.4085C406.248 80.118 408.925 79.3972 410.77 79.0797Z" fill="#019D78"/>
<path d="M131.774 78.8559C136.853 78.4256 145.466 78.6956 150.857 78.7014L185.932 78.7041L231.833 78.6994C236.245 78.6976 243.015 79.1156 247.153 78.6844C265.582 76.7641 278.652 94.0626 273.555 112.164C270.857 121.48 263.77 128.885 254.58 131.985C248.583 133.98 234.603 133.267 227.538 133.266L165.393 133.269L146.645 133.257C142.744 133.255 137.755 133.103 133.984 133.572C128.836 134.182 123.856 135.788 119.322 138.302C110.215 143.421 103.525 151.962 100.736 162.031C98.1452 171.314 99.3564 181.246 104.103 189.634C113.659 206.669 130.448 209.667 148.045 208.854C156.198 208.477 165.583 208.827 173.793 208.967C184.641 209.153 196.308 211.744 206.731 214.656C216.671 217.811 224.144 221.273 233.25 226.345C214.492 237.926 204.472 252 200.662 273.87C176.334 259.973 155.706 266.265 129.765 264.345C108.877 262.93 89.0467 254.638 73.3702 240.762C55.1857 224.783 43.9977 202.306 42.2117 178.165C40.5877 153.63 48.8699 129.469 65.2042 111.089C82.3822 91.4584 105.897 80.5496 131.774 78.8559Z" fill="#482ACB"/>
<path d="M260.705 245.841C269.815 244.907 278.958 247.254 286.488 252.46C294.695 258.165 300.288 266.905 302.03 276.747C303.755 286.635 301.48 296.8 295.703 305.007C288.73 314.89 279.713 319.507 268.12 321.567L262.41 348.14C257.613 363.247 246.894 379.54 235.683 390.752C218.071 408.365 194.808 420 169.917 422.46C165.116 422.932 160.106 422.802 155.271 422.797L137.907 422.805L83.8368 422.807C74.5891 422.732 62.6088 424.462 54.8813 418.677C42.2373 409.21 42.1266 391.015 50.9861 378.865C55.3678 372.922 61.6836 368.692 68.8468 366.905C74.5778 365.445 85.8958 365.955 92.2823 365.957L140.915 365.95C149.786 365.952 160.382 366.462 168.988 365.29C184.221 363.212 197.611 352.445 205.884 339.96C208.312 336.297 210.49 332.242 212.836 328.507C219.12 320.027 225.67 311.725 231.833 303.152C229.495 298.455 227.928 294.407 227.165 289.132C225.665 279.005 228.309 268.7 234.499 260.547C241.064 251.9 250.08 247.261 260.705 245.841Z" fill="#482ACB"/>
</svg>
