<svg width="1878" height="546" viewBox="0 0 1878 546" fill="none" xmlns="http://www.w3.org/2000/svg">
<path d="M527.691 101.145C544.766 99.8939 563.079 101.076 580.289 100.572C585.824 100.409 605.308 99.6228 608.692 103.329C609.4 106.363 608.833 108.686 606.788 110.975C594.834 124.363 582.094 137.713 569.932 150.867L482.851 244.668C475.071 253.011 449.112 278.962 446.208 287.637C462.201 302.627 478.988 320.075 494.565 335.725C528.03 369.324 561.236 403.179 594.18 437.29C594.364 439.954 594.338 440.273 593.16 442.664C589.295 446.129 567.325 444.93 561.333 444.914L508.91 444.655C503.021 440.33 482.232 418.696 475.814 412.248L411.525 348.113C416.102 343.492 420.389 337.075 423.17 331.208C430.18 316.715 430.955 299.985 425.315 284.906C418.933 267.353 406.614 255.649 389.989 247.832C422.227 214.514 453.641 178.1 485.91 144.632C494.034 136.205 519.589 106.747 527.691 101.145Z" fill="#009F79"/>
<path d="M209.568 100.497C215.857 99.6081 247.884 100.188 256.789 100.184L316.4 100.186C326.552 100.194 340.507 99.3578 350.038 101.169C364.352 103.889 371.701 120.256 368.019 133.47C360.894 159.045 334.846 155.627 314.71 155.573L248.092 155.396C239.081 155.374 219.398 154.839 211.138 156.105C205.103 156.998 199.316 159.122 194.135 162.345C185.091 167.955 178.716 176.999 176.471 187.402C172.484 206.728 186.216 225.054 204.693 229.501C215.032 231.989 225.685 231.516 236.241 231.464C254.133 231.377 270.437 231.028 288.1 234.582C303.196 237.9 313.816 242.424 327.462 249.369C325.258 250.561 323.102 251.84 320.998 253.201C303.195 264.77 296.478 276.779 292.216 297.01C253.413 277.822 219.663 294.731 182.888 282.328C77.7622 246.874 99.0087 110.868 209.568 100.497Z" fill="#4628CE"/>
<path d="M209.568 100.497C215.857 99.6081 247.884 100.188 256.789 100.184L316.4 100.186C326.552 100.194 340.507 99.3578 350.038 101.169C364.352 103.889 371.701 120.256 368.019 133.47C360.894 159.045 334.846 155.627 314.71 155.573L248.092 155.396C239.081 155.374 219.398 154.839 211.138 156.105C205.103 156.998 199.316 159.122 194.135 162.345C185.091 167.955 178.716 176.999 176.471 187.402C172.484 206.728 186.216 225.054 204.693 229.501C215.032 231.989 225.685 231.516 236.241 231.464C254.133 231.377 270.437 231.028 288.1 234.582C303.196 237.9 313.816 242.424 327.462 249.369C325.258 250.561 323.102 251.84 320.998 253.201C303.195 264.77 296.478 276.779 292.216 297.01C253.413 277.822 219.663 294.731 182.888 282.328C77.7622 246.874 99.0087 110.868 209.568 100.497Z" fill="#4628CE"/>
<path d="M351.98 268.406C363.504 267.048 374.538 268.748 384.16 275.683C392.368 281.503 397.817 290.446 399.224 300.409C400.622 310.337 397.946 320.409 391.804 328.333C384.286 338.004 375.19 341.756 363.535 343.298C355.587 372.542 355.108 387.531 330.865 411.198C293.695 447.486 260.163 444.938 213.135 444.927L143.669 444.863C136.675 444.971 128.365 445.503 121.77 444.111C87.9097 436.963 96.5547 393.639 127.079 388.455C139.007 386.43 149.922 387.114 161.62 387.123L221.622 387.233C232.105 387.263 245.397 387.801 255.249 386.903C280.551 384.595 292.98 367.482 305.808 348.196C309.751 342.268 318.974 331.549 323.891 325.625C322.57 322.86 320.574 318.074 319.825 315.101C317.397 305.572 318.891 295.467 323.973 287.048C330.673 275.93 340.034 271.397 351.98 268.406Z" fill="#4628CE"/>
<path d="M677.918 358.262C667.248 358.262 658.228 356.557 650.858 353.147C643.598 349.737 638.043 345.062 634.193 339.122C630.343 333.072 628.418 326.252 628.418 318.662H651.353C651.353 321.852 652.233 324.987 653.993 328.067C655.753 331.037 658.558 333.457 662.408 335.327C666.368 337.197 671.538 338.132 677.918 338.132C683.638 338.132 688.423 337.307 692.273 335.657C696.123 334.007 698.983 331.862 700.853 329.222C702.723 326.472 703.658 323.392 703.658 319.982C703.658 315.692 701.843 312.282 698.213 309.752C694.583 307.112 688.973 305.462 681.383 304.802L670.823 303.977C659.273 302.987 650.033 299.412 643.103 293.252C636.283 286.982 632.873 278.732 632.873 268.502C632.873 260.802 634.688 254.202 638.318 248.702C641.948 243.092 647.008 238.802 653.498 235.832C660.098 232.752 667.798 231.212 676.598 231.212C685.728 231.212 693.593 232.807 700.193 235.997C706.793 239.187 711.908 243.697 715.538 249.527C719.168 255.247 720.983 262.012 720.983 269.822H698.048C698.048 266.522 697.223 263.497 695.573 260.747C694.033 257.887 691.668 255.632 688.478 253.982C685.398 252.222 681.438 251.342 676.598 251.342C671.978 251.342 668.128 252.112 665.048 253.652C661.968 255.192 659.658 257.282 658.118 259.922C656.578 262.562 655.808 265.422 655.808 268.502C655.808 272.242 657.183 275.542 659.933 278.402C662.683 281.152 667.028 282.747 672.968 283.187L683.528 284.177C692.108 284.837 699.643 286.652 706.133 289.622C712.623 292.592 717.628 296.607 721.148 301.667C724.778 306.727 726.593 312.832 726.593 319.982C726.593 327.572 724.613 334.282 720.653 340.112C716.693 345.832 711.028 350.287 703.658 353.477C696.398 356.667 687.818 358.262 677.918 358.262ZM781.84 356.282C773.59 356.282 766.77 355.237 761.38 353.147C756.1 350.947 752.14 347.317 749.5 342.257C746.86 337.087 745.54 330.157 745.54 321.467L745.705 240.287H767.155L766.99 322.952C766.99 327.352 768.145 330.762 770.455 333.182C772.875 335.492 776.285 336.647 780.685 336.647H794.71V356.282H781.84ZM731.35 282.362V265.532H794.71V282.362H731.35ZM864.622 355.127V328.562H860.827V299.027C860.827 293.857 859.562 290.007 857.032 287.477C854.502 284.947 850.597 283.682 845.317 283.682C842.567 283.682 839.267 283.737 835.417 283.847C831.567 283.957 827.662 284.122 823.702 284.342C819.852 284.452 816.387 284.617 813.307 284.837V265.367C815.837 265.147 818.697 264.927 821.887 264.707C825.077 264.487 828.322 264.377 831.622 264.377C835.032 264.267 838.222 264.212 841.192 264.212C850.432 264.212 858.077 265.422 864.127 267.842C870.287 270.262 874.907 274.057 877.987 279.227C881.177 284.397 882.772 291.162 882.772 299.522V355.127H864.622ZM835.747 357.437C829.257 357.437 823.537 356.282 818.587 353.972C813.747 351.662 809.952 348.362 807.202 344.072C804.562 339.782 803.242 334.612 803.242 328.562C803.242 321.962 804.837 316.572 808.027 312.392C811.327 308.212 815.892 305.077 821.722 302.987C827.662 300.897 834.592 299.852 842.512 299.852H863.302V313.547H842.182C836.902 313.547 832.832 314.867 829.972 317.507C827.222 320.037 825.847 323.337 825.847 327.407C825.847 331.477 827.222 334.777 829.972 337.307C832.832 339.837 836.902 341.102 842.182 341.102C845.372 341.102 848.287 340.552 850.927 339.452C853.677 338.242 855.932 336.262 857.692 333.512C859.562 330.652 860.607 326.802 860.827 321.962L866.437 328.397C865.887 334.667 864.347 339.947 861.817 344.237C859.397 348.527 855.987 351.827 851.587 354.137C847.297 356.337 842.017 357.437 835.747 357.437ZM904.039 355.127V265.532H922.189V303.482H921.694C921.694 290.612 924.444 280.877 929.944 274.277C935.444 267.677 943.529 264.377 954.199 264.377H957.499V284.342H951.229C943.529 284.342 937.534 286.432 933.244 290.612C929.064 294.682 926.974 300.622 926.974 308.432V355.127H904.039ZM1010.42 356.282C1002.17 356.282 995.346 355.237 989.956 353.147C984.676 350.947 980.716 347.317 978.076 342.257C975.436 337.087 974.116 330.157 974.116 321.467L974.281 240.287H995.731L995.566 322.952C995.566 327.352 996.721 330.762 999.031 333.182C1001.45 335.492 1004.86 336.647 1009.26 336.647H1023.29V356.282H1010.42ZM959.926 282.362V265.532H1023.29V282.362H959.926ZM1069.76 357.932C1059.42 357.932 1051.39 354.522 1045.67 347.702C1040.06 340.882 1037.26 330.762 1037.26 317.342V265.367H1060.19V319.322C1060.19 324.822 1061.73 329.222 1064.81 332.522C1067.89 335.712 1072.07 337.307 1077.35 337.307C1082.63 337.307 1086.92 335.602 1090.22 332.192C1093.63 328.782 1095.34 324.162 1095.34 318.332V265.367H1118.27V355.127H1100.12V317.012H1101.94C1101.94 326.032 1100.78 333.567 1098.47 339.617C1096.16 345.667 1092.7 350.232 1088.08 353.312C1083.46 356.392 1077.68 357.932 1070.75 357.932H1069.76ZM1141.32 388.127V265.532H1159.47V304.142L1156.66 303.977C1157.1 294.847 1158.97 287.202 1162.27 281.042C1165.68 274.882 1170.19 270.317 1175.8 267.347C1181.41 264.267 1187.68 262.727 1194.61 262.727C1200.99 262.727 1206.71 263.882 1211.77 266.192C1216.94 268.502 1221.34 271.747 1224.97 275.927C1228.71 280.107 1231.57 285.002 1233.55 290.612C1235.53 296.112 1236.52 302.052 1236.52 308.432V311.897C1236.52 318.387 1235.53 324.437 1233.55 330.047C1231.68 335.547 1228.88 340.442 1225.14 344.732C1221.51 348.912 1217.11 352.212 1211.94 354.632C1206.77 356.942 1200.99 358.097 1194.61 358.097C1187.9 358.097 1181.74 356.722 1176.13 353.972C1170.63 351.112 1166.18 346.767 1162.77 340.937C1159.36 334.997 1157.43 327.352 1156.99 318.002L1164.25 329.057V388.127H1141.32ZM1188.84 338.792C1193.79 338.792 1198.08 337.582 1201.71 335.162C1205.45 332.742 1208.36 329.387 1210.45 325.097C1212.54 320.697 1213.59 315.747 1213.59 310.247C1213.59 304.527 1212.54 299.577 1210.45 295.397C1208.36 291.217 1205.45 287.972 1201.71 285.662C1198.08 283.242 1193.79 282.032 1188.84 282.032C1184.33 282.032 1180.15 283.022 1176.3 285.002C1172.56 286.982 1169.48 289.897 1167.06 293.747C1164.75 297.597 1163.59 302.217 1163.59 307.607V314.207C1163.59 319.377 1164.8 323.777 1167.22 327.407C1169.64 331.037 1172.78 333.842 1176.63 335.822C1180.48 337.802 1184.55 338.792 1188.84 338.792Z" fill="#030047"/>
<path d="M1333.25 355.127L1289.19 298.862H1272.2L1324.5 234.677H1351.4L1304.21 292.427L1303.55 280.877L1361.79 355.127H1333.25ZM1255.2 355.127V234.677H1278.63V355.127H1255.2ZM1370.13 355.127V265.532H1388.28V303.977H1386.63C1386.63 294.847 1387.84 287.257 1390.26 281.207C1392.68 275.047 1396.26 270.427 1400.99 267.347C1405.83 264.267 1411.82 262.727 1418.97 262.727H1419.96C1430.63 262.727 1438.72 266.192 1444.22 273.122C1449.72 279.942 1452.47 290.172 1452.47 303.812V355.127H1429.53V301.832C1429.53 296.332 1427.94 291.877 1424.75 288.467C1421.67 285.057 1417.38 283.352 1411.88 283.352C1406.27 283.352 1401.7 285.112 1398.18 288.632C1394.77 292.042 1393.07 296.662 1393.07 302.492V355.127H1370.13ZM1513.92 358.262C1506.22 358.262 1499.45 356.942 1493.62 354.302C1487.9 351.662 1483.12 348.142 1479.27 343.742C1475.53 339.232 1472.67 334.227 1470.69 328.727C1468.82 323.227 1467.88 317.617 1467.88 311.897V308.762C1467.88 302.822 1468.82 297.102 1470.69 291.602C1472.67 285.992 1475.53 281.042 1479.27 276.752C1483.12 272.352 1487.85 268.887 1493.46 266.357C1499.07 263.717 1505.56 262.397 1512.93 262.397C1522.61 262.397 1530.69 264.542 1537.18 268.832C1543.78 273.012 1548.73 278.567 1552.03 285.497C1555.33 292.317 1556.98 299.687 1556.98 307.607V315.857H1477.62V301.832H1542.63L1535.53 308.762C1535.53 303.042 1534.71 298.147 1533.06 294.077C1531.41 290.007 1528.88 286.872 1525.47 284.672C1522.17 282.472 1517.99 281.372 1512.93 281.372C1507.87 281.372 1503.58 282.527 1500.06 284.837C1496.54 287.147 1493.84 290.502 1491.97 294.902C1490.21 299.192 1489.33 304.362 1489.33 310.412C1489.33 316.022 1490.21 321.027 1491.97 325.427C1493.73 329.717 1496.43 333.127 1500.06 335.657C1503.69 338.077 1508.31 339.287 1513.92 339.287C1519.53 339.287 1524.09 338.187 1527.61 335.987C1531.13 333.677 1533.39 330.872 1534.38 327.572H1555.5C1554.18 333.732 1551.65 339.122 1547.91 343.742C1544.17 348.362 1539.38 351.937 1533.55 354.467C1527.83 356.997 1521.29 358.262 1513.92 358.262ZM1612.61 358.262C1604.8 358.262 1598.03 356.942 1592.31 354.302C1586.7 351.662 1581.97 348.142 1578.12 343.742C1574.38 339.342 1571.58 334.392 1569.71 328.892C1567.84 323.392 1566.9 317.782 1566.9 312.062V308.927C1566.9 302.877 1567.84 297.102 1569.71 291.602C1571.69 285.992 1574.6 281.042 1578.45 276.752C1582.3 272.352 1587.03 268.887 1592.64 266.357C1598.36 263.717 1604.96 262.397 1612.44 262.397C1620.25 262.397 1627.24 263.937 1633.4 267.017C1639.56 269.987 1644.45 274.167 1648.08 279.557C1651.82 284.947 1653.91 291.217 1654.35 298.367H1632.08C1631.53 293.747 1629.55 289.897 1626.14 286.817C1622.84 283.737 1618.27 282.197 1612.44 282.197C1607.38 282.197 1603.15 283.407 1599.74 285.827C1596.44 288.247 1593.96 291.602 1592.31 295.892C1590.66 300.072 1589.84 304.912 1589.84 310.412C1589.84 315.692 1590.61 320.477 1592.15 324.767C1593.8 329.057 1596.27 332.412 1599.57 334.832C1602.98 337.252 1607.33 338.462 1612.61 338.462C1616.57 338.462 1619.98 337.747 1622.84 336.317C1625.7 334.887 1627.95 332.907 1629.6 330.377C1631.36 327.847 1632.46 324.987 1632.9 321.797H1655.18C1654.74 329.057 1652.59 335.437 1648.74 340.937C1645 346.327 1640 350.562 1633.73 353.642C1627.57 356.722 1620.53 358.262 1612.61 358.262ZM1709.19 356.282C1700.94 356.282 1694.12 355.237 1688.73 353.147C1683.45 350.947 1679.49 347.317 1676.85 342.257C1674.21 337.087 1672.89 330.157 1672.89 321.467L1673.06 240.287H1694.51L1694.34 322.952C1694.34 327.352 1695.5 330.762 1697.81 333.182C1700.23 335.492 1703.64 336.647 1708.04 336.647H1722.06V356.282H1709.19ZM1658.7 282.362V265.532H1722.06V282.362H1658.7Z" fill="#009F79"/>
</svg>
